# xmcd
#
# Track frame offsets:
#	150
#	5136
#	23340
#	43344
#	60265
#	79233
#	96846
#	113916
#	133899
#	148900
#	166391
#	186633
#	202224
#
# Disc length: 2724 seconds
#
# Revision: 0
# Processed by: cddbd v1.5.1PL0 Copyright (c) Steve Scherf et al.
# Submitted via: audiograbber 1.83.01
#
DISCID=c10aa20d
DTITLE=Шао? Бао! - (2000) - Сделано на экспорт.
DYEAR=1900
DGENRE=
TTITLE0=Тест. (Для настройки)
TTITLE1=Ча-ча-шао.
TTITLE2=Разводная №9.
TTITLE3=Сезон дождей. (Для альбома)
TTITLE4=Я стал крутым.
TTITLE5=Колотушка 2000.
TTITLE6=Весенняя.
TTITLE7=Она нму не нужна. (Для альбома)
TTITLE8=Регги-рагги-твист.
TTITLE9=Заморская.
TTITLE10=Ему нужна не она. (Для клубов)
TTITLE11=Колотушка 2000. (Как прикол)
TTITLE12=Тест. (Для подстройки)
EXTD=
EXTT0=
EXTT1=
EXTT2=
EXTT3=
EXTT4=
EXTT5=
EXTT6=
EXTT7=
EXTT8=
EXTT9=
EXTT10=
EXTT11=
EXTT12=
PLAYORDER=
